# xmcd
#
# Track frame offsets:
#	150
#	14175
#	35025
#	51225
#	69375
#	86850
#	108300
#	126300
#	148875
#	170550
#	196575
#
# Disc length: 2757 seconds
#
# Revision: 1
# Processed by: cddbd v1.4PL0 Copyright (c) Steve Scherf et al.
# Submitted via: audiograbber 1.81.02
#
DISCID=a60ac30b
DTITLE=George 'Wild Child' Butler - Lickin' Gravy
DYEAR=1998
DGENRE=Blues
TTITLE0=Everybody Got A Mojo
TTITLE1=Gravy Child
TTITLE2=Funky Butt Lover
TTITLE3=None Of Nothing
TTITLE4=Built For Comfort
TTITLE5=I Love You From Now On
TTITLE6=Spoonful
TTITLE7=My Baby Got Another Man
TTITLE8=Rooster Blues
TTITLE9=Love Like A Butterfly
TTITLE10=Speed
EXTD=MC Records 38\n© 1998
EXTT0=
EXTT1=
EXTT2=
EXTT3=
EXTT4=
EXTT5=
EXTT6=
EXTT7=
EXTT8=
EXTT9=
EXTT10=
PLAYORDER=
